[Header]
FileType HTR
DataType HTRS
FileVersion 1
NumSegments 64
NumFrames 3
DataFrameRate 24
EulerRotationOrder ZYX
CalibrationUnits mm
RotationUnits Degrees
GlobalAxisofGravity Y
BoneLengthAxis Y
ScaleFactor 1.0
[SegmentNames&Hierarchy]
Hips	GLOBAL
Spine	Hips
Spine1	Spine
Spine2	Spine1
Neck	Spine2
Head	Neck
LeftEye	Head
RightEye	Head
LeftShoulder	Spine2
LeftArm	LeftShoulder
LeftForeArm	LeftArm
LeftHand	LeftForeArm
LeftHandThumb1	LeftHand
LeftHandThumb2	LeftHandThumb1
LeftHandThumb3	LeftHandThumb2
LeftHandThumb4	LeftHandThumb3
LeftHandIndex1	LeftHand
LeftHandIndex2	LeftHandIndex1
LeftHandIndex3	LeftHandIndex2
LeftHandIndex4	LeftHandIndex3
LeftHandMiddle1	LeftHand
LeftHandMiddle2	LeftHandMiddle1
LeftHandMiddle3	LeftHandMiddle2
LeftHandMiddle4	LeftHandMiddle3
LeftHandRing1	LeftHand
LeftHandRing2	LeftHandRing1
LeftHandRing3	LeftHandRing2
LeftHandRing4	LeftHandRing3
LeftHandPinky1	LeftHand
LeftHandPinky2	LeftHandPinky1
LeftHandPinky3	LeftHandPinky2
LeftHandPinky4	LeftHandPinky3
RightShoulder	Spine2
RightArm	RightShoulder
RightForeArm	RightArm
RightHand	RightForeArm
RightHandPinky1	RightHand
RightHandPinky2	RightHandPinky1
RightHandPinky3	RightHandPinky2
RightHandPinky4	RightHandPinky3
RightHandRing1	RightHand
RightHandRing2	RightHandRing1
RightHandRing3	RightHandRing2
RightHandRing4	RightHandRing3
RightHandMiddle1	RightHand
RightHandMiddle2	RightHandMiddle1
RightHandMiddle3	RightHandMiddle2
RightHandMiddle4	RightHandMiddle3
RightHandIndex1	RightHand
RightHandIndex2	RightHandIndex1
RightHandIndex3	RightHandIndex2
RightHandIndex4	RightHandIndex3
RightHandThumb1	RightHand
RightHandThumb2	RightHandThumb1
RightHandThumb3	RightHandThumb2
RightHandThumb4	RightHandThumb3
LeftUpLeg	Hips
LeftLeg	LeftUpLeg
LeftFoot	LeftLeg
LeftToeBase	LeftFoot
RightUpLeg	Hips
RightLeg	RightUpLeg
RightFoot	RightLeg
RightToeBase	RightFoot
[BasePosition]
Hips	0	0	0	0	0	0	1
Spine	0	0	0	0	0	0	1
Spine1	0	0	0	0	0	0	1
Spine2	0	0	0	0	0	0	1
Neck	0	0	0	0	0	0	1
Head	0	0	0	0	0	0	1
LeftEye	0	0	0	0	0	0	1
RightEye	0	0	0	0	0	0	1
LeftShoulder	0	0	0	0	0	0	1
LeftArm	0	0	0	0	0	0	1
LeftForeArm	0	0	0	0	0	0	1
LeftHand	0	0	0	0	0	0	1
LeftHandThumb1	0	0	0	0	0	0	1
LeftHandThumb2	0	0	0	0	0	0	1
LeftHandThumb3	0	0	0	0	0	0	1
LeftHandThumb4	0	0	0	0	0	0	1
LeftHandIndex1	0	0	0	0	0	0	1
LeftHandIndex2	0	0	0	0	0	0	1
LeftHandIndex3	0	0	0	0	0	0	1
LeftHandIndex4	0	0	0	0	0	0	1
LeftHandMiddle1	0	0	0	0	0	0	1
LeftHandMiddle2	0	0	0	0	0	0	1
LeftHandMiddle3	0	0	0	0	0	0	1
LeftHandMiddle4	0	0	0	0	0	0	1
LeftHandRing1	0	0	0	0	0	0	1
LeftHandRing2	0	0	0	0	0	0	1
LeftHandRing3	0	0	0	0	0	0	1
LeftHandRing4	0	0	0	0	0	0	1
LeftHandPinky1	0	0	0	0	0	0	1
LeftHandPinky2	0	0	0	0	0	0	1
LeftHandPinky3	0	0	0	0	0	0	1
LeftHandPinky4	0	0	0	0	0	0	1
RightShoulder	0	0	0	0	0	0	1
RightArm	0	0	0	0	0	0	1
RightForeArm	0	0	0	0	0	0	1
RightHand	0	0	0	0	0	0	1
RightHandPinky1	0	0	0	0	0	0	1
RightHandPinky2	0	0	0	0	0	0	1
RightHandPinky3	0	0	0	0	0	0	1
RightHandPinky4	0	0	0	0	0	0	1
RightHandRing1	0	0	0	0	0	0	1
RightHandRing2	0	0	0	0	0	0	1
RightHandRing3	0	0	0	0	0	0	1
RightHandRing4	0	0	0	0	0	0	1
RightHandMiddle1	0	0	0	0	0	0	1
RightHandMiddle2	0	0	0	0	0	0	1
RightHandMiddle3	0	0	0	0	0	0	1
RightHandMiddle4	0	0	0	0	0	0	1
RightHandIndex1	0	0	0	0	0	0	1
RightHandIndex2	0	0	0	0	0	0	1
RightHandIndex3	0	0	0	0	0	0	1
RightHandIndex4	0	0	0	0	0	0	1
RightHandThumb1	0	0	0	0	0	0	1
RightHandThumb2	0	0	0	0	0	0	1
RightHandThumb3	0	0	0	0	0	0	1
RightHandThumb4	0	0	0	0	0	0	1
LeftUpLeg	0	0	0	0	0	0	1
LeftLeg	0	0	0	0	0	0	1
LeftFoot	0	0	0	0	0	0	1
LeftToeBase	0	0	0	0	0	0	1
RightUpLeg	0	0	0	0	0	0	1
RightLeg	0	0	0	0	0	0	1
RightFoot	0	0	0	0	0	0	1
RightToeBase	0	0	0	0	0	0	1
[Hips]
14	94.02164459	752.5812988	-76.46656036	34.77778244	-20.61850929	-8.36029911	1.0
15	98.44248962	762.1502686	-66.95588684	31.38642693	-22.400177	-6.993603706	1.0
16	101.6790009	793.8221436	-52.23752975	25.32637596	-25.98101616	-4.070920944	1.0
[Spine]
14	0	101.8159943	1.315000057	10.63249874	-4.26556921	2.319941759	1.0
15	0	101.8159943	1.315000057	10.13500023	-4.086633205	2.860011816	1.0
16	0	101.8159943	1.315000057	9.178009033	-3.02669549	2.914966822	1.0
[Spine1]
14	0	100.8349991	-10.00800037	4.093379021	-0.5628560185	1.027045965	1.0
15	0	100.8349991	-10.00800037	3.830134392	-0.8667007089	1.368165731	1.0
16	0	100.8349991	-10.00800037	3.471638441	-1.030001402	1.740883827	1.0
[Spine2]
14	0	91	-13.73399925	4.056027412	-0.6249318719	0.9375256896	1.0
15	0	91	-13.73399925	3.796055079	-0.9128965139	1.31077373	1.0
16	0	91	-13.73399925	3.442958117	-1.04239738	1.728392482	1.0
[Neck]
14	0	166.7169952	-25.16200066	-11.60931778	3.708148718	6.798478127	1.0
15	0	166.7169952	-25.16200066	-10.81829166	3.970814943	6.359817028	1.0
16	0	166.7169952	-25.16200066	-7.531955719	3.890851259	3.890939236	1.0
[Head]
14	0	96.17900085	16.84999847	-48.74297714	15.13103008	-8.72947979	1.0
15	0	96.17900085	16.84999847	-46.18364716	15.97916698	-10.25399208	1.0
16	0	96.17900085	16.84999847	-40.71014404	16.08262825	-12.779212	1.0
[LeftEye]
14	30.6760006	64.09500122	92.83599854	0	0	0	1.0
15	30.6760006	64.09500122	92.83599854	0	0	0	1.0
16	30.6760006	64.09500122	92.83599854	0	0	0	1.0
[RightEye]
14	-30.6760006	64.09500122	92.83499908	0	0	0	1.0
15	-30.6760006	64.09500122	92.83499908	0	0	0	1.0
16	-30.6760006	64.09500122	92.83499908	0	0	0	1.0
[LeftShoulder]
14	45.70400238	109.4599991	-26.28000069	5.582376003	-24.32983208	-8.399168968	1.0
15	45.70400238	109.4599991	-26.28000069	5.764320374	-23.75380135	-9.042480469	1.0
16	45.70400238	109.4599991	-26.28000069	6.076946259	-22.36952782	-11.16182327	1.0
[LeftArm]
14	105.923996	-5.24600029	-22.32099915	40.42494202	-55.62322998	-40.12458038	1.0
15	105.923996	-5.24600029	-22.32099915	34.390625	-50.84476852	-38.57695389	1.0
16	105.923996	-5.24600029	-22.32099915	24.4022541	-37.61697769	-36.76590347	1.0
[LeftForeArm]
14	278.414978	-0.0009999999311	0	1.362538114e-06	-56.93548584	-0.0002290669509	1.0
15	278.414978	-0.0009999999311	0	1.450109039e-06	-52.43054199	-0.0001883075456	1.0
16	278.414978	-0.0009999999311	0	7.972055755e-06	-41.34292221	-0.0002076025412	1.0
[LeftHand]
14	283.2879944	0	0	1.486087918	-11.33530712	-12.0413456	1.0
15	283.2879944	0	0	-4.794454098	-17.52062225	-6.598490238	1.0
16	283.2879944	0	0	-29.03085709	-22.79538918	3.713478327	1.0
[LeftHandThumb1]
14	24.6609993	-15.75	26.8239994	-0.4893738925	2.200429201	4.818220139	1.0
15	24.6609993	-15.75	26.8239994	-0.4889551401	2.201444626	4.818550587	1.0
16	24.6609993	-15.75	26.8239994	-0.4874692857	2.205252886	4.819834232	1.0
[LeftHandThumb2]
14	32.29800034	-18.64699936	18.64699936	1.631547689	20.74240112	8.717395782	1.0
15	32.29800034	-18.64699936	18.64699936	1.859511852	23.70637894	5.18315649	1.0
16	32.29800034	-18.64699936	18.64699936	2.237501144	25.00371552	7.501951218	1.0
[LeftHandThumb3]
14	26.52600098	-15.31499958	15.31499958	-11.06095409	18.44224548	16.37327957	1.0
15	26.52600098	-15.31499958	15.31499958	-9.742723465	22.65757179	17.96444893	1.0
16	26.52600098	-15.31499958	15.31499958	-9.761283875	21.86428642	15.77132416	1.0
[LeftHandThumb4]
14	19.54599953	-11.28499985	11.28499985	0	0	0	1.0
15	19.54599953	-11.28499985	11.28499985	0	0	0	1.0
16	19.54599953	-11.28499985	11.28499985	0	0	0	1.0
[LeftHandIndex1]
14	91.09299469	-5.170999527	22.60099792	0.9947569966	3.219469309	-17.49517059	1.0
15	91.09299469	-5.170999527	22.60099792	0.5018109679	2.692629814	-19.83008003	1.0
16	91.09299469	-5.170999527	22.60099792	0.1685257405	1.418834567	-17.65460587	1.0
[LeftHandIndex2]
14	36.76399994	0	0	-0.3616579175	2.023595333	-20.26309776	1.0
15	36.76399994	0	0	-0.387588203	2.092544794	-20.98611641	1.0
16	36.76399994	0	0	-0.3256629407	1.923329353	-19.21788406	1.0
[LeftHandIndex3]
14	28.83100128	0	0	-0.1058763489	1.107435942	-10.92238808	1.0
15	28.83100128	0	0	-0.1203153059	1.179713011	-11.64498138	1.0
16	28.83100128	0	0	-0.08666080981	1.00272131	-9.878463745	1.0
[LeftHandIndex4]
14	23.92700005	0	0	0	0	0	1.0
15	23.92700005	0	0	0	0	0	1.0
16	23.92700005	0	0	0	0	0	1.0
[LeftHandMiddle1]
14	95.33399963	0	0	-1.710645914	2.79893899	-27.71996498	1.0
15	95.33399963	0	0	-1.964409113	0.5885851979	-30.81495476	1.0
16	95.33399963	0	0	-1.471152782	-0.917787075	-25.07551575	1.0
[LeftHandMiddle2]
14	36.98199844	0	0	-0.299600035	1.847002864	-18.42628288	1.0
15	36.98199844	0	0	-0.3185458481	1.902847171	-19.00497246	1.0
16	36.98199844	0	0	-0.2889944017	1.814833522	-18.09407043	1.0
[LeftHandMiddle3]
14	29.50900078	0	0	-0.333319068	1.945176482	-19.44502068	1.0
15	29.50900078	0	0	-0.3547642529	2.004880667	-20.06745338	1.0
16	29.50900078	0	0	-0.3245221078	1.920063376	-19.18370438	1.0
[LeftHandMiddle4]
14	28.3390007	0	0	0	0	0	1.0
15	28.3390007	0	0	0	0	0	1.0
16	28.3390007	0	0	0	0	0	1.0
[LeftHandRing1]
14	91.04499817	-0.4390000105	-18.65100098	-1.898097277	1.732096672	-29.98590469	1.0
15	91.04499817	-0.4390000105	-18.65100098	-2.325895548	1.580597997	-34.77527618	1.0
16	91.04499817	-0.4390000105	-18.65100098	-1.825238705	1.54070282	-29.10822296	1.0
[LeftHandRing2]
14	31.54000092	0	0	-0.6235282421	2.625756979	-26.71277046	1.0
15	31.54000092	0	0	-0.6778129339	2.730829954	-27.87439728	1.0
16	31.54000092	0	0	-0.6258057356	2.630227804	-26.76207161	1.0
[LeftHandRing3]
14	29.37700081	0	0	-0.4923020005	2.347122908	-23.68828583	1.0
15	29.37700081	0	0	-0.5412270427	2.455530167	-24.85593224	1.0
16	29.37700081	0	0	-0.494392097	2.351912975	-23.7395649	1.0
[LeftHandRing4]
14	26.47500038	0	0	0	0	0	1.0
15	26.47500038	0	0	0	0	0	1.0
16	26.47500038	0	0	0	0	0	1.0
[LeftHandPinky1]
14	80.77799988	-4.887000084	-38.06099701	-4.16690588	-2.306201458	-43.51219177	1.0
15	80.77799988	-4.887000084	-38.06099701	-4.868677139	-2.698769331	-49.60450363	1.0
16	80.77799988	-4.887000084	-38.06099701	-3.970457554	-0.2080806494	-43.7640152	1.0
[LeftHandPinky2]
14	36	0	0	-0.5790891647	2.535604	-25.72579765	1.0
15	36	0	0	-0.6327611208	2.644005775	-26.91345215	1.0
16	36	0	0	-0.5453742743	2.4644804	-24.95283127	1.0
[LeftHandPinky3]
14	21.14200211	0	0	-0.5356600881	2.443502188	-24.72599411	1.0
15	21.14200211	0	0	-0.5869854093	2.551901102	-25.90361214	1.0
16	21.14200211	0	0	-0.5045697689	2.374921083	-23.98642159	1.0
[LeftHandPinky4]
14	19.75699997	0	0	0	0	0	1.0
15	19.75699997	0	0	0	0	0	1.0
16	19.75699997	0	0	0	0	0	1.0
[RightShoulder]
14	-45.70000076	109.4620056	-26.28000069	6.310196877	17.86506271	23.06776237	1.0
15	-45.70000076	109.4620056	-26.28000069	6.702484131	18.36708069	24.5346508	1.0
16	-45.70000076	109.4620056	-26.28000069	6.405986309	18.6948185	22.60142326	1.0
[RightArm]
14	-105.9280014	-5.248000145	-22.32099915	10.37507343	14.31235981	43.44542694	1.0
15	-105.9280014	-5.248000145	-22.32099915	10.15615559	23.80789185	32.4540062	1.0
16	-105.9280014	-5.248000145	-22.32099915	10.33802319	35.1297226	21.65592957	1.0
[RightForeArm]
14	-278.414978	0	0	-8.919734569e-07	14.52967262	1.805069587e-06	1.0
15	-278.414978	0	0	4.734530648e-06	23.20475197	-6.228764505e-06	1.0
16	-278.414978	0	0	4.632237051e-06	36.44020081	9.336875337e-06	1.0
[RightHand]
14	-283.2879944	0	0.0009999999311	-23.2585392	-11.58375359	2.352928638	1.0
15	-283.2879944	0	0.0009999999311	-13.78893566	-8.923279762	8.572821617	1.0
16	-283.2879944	0	0.0009999999311	-5.841010094	-5.653666019	13.47502232	1.0
[RightHandPinky1]
14	-80.76699829	-4.885000229	-38.06000137	-2.267827511	-4.937578201	35.7614975	1.0
15	-80.76699829	-4.885000229	-38.06000137	-2.279655218	-4.510673046	35.18401337	1.0
16	-80.76699829	-4.885000229	-38.06000137	-2.062304258	-3.909945726	31.3657074	1.0
[RightHandPinky2]
14	-36	0	0.0009999999311	-0.3115784526	-1.67145443	21.13702965	1.0
15	-36	0	0.0009999999311	-0.3228272796	-1.700270057	21.51925087	1.0
16	-36	0	0.0009999999311	-0.310256809	-1.668049335	21.09195518	1.0
[RightHandPinky3]
14	-21.14200211	0	0	-0.2863337696	-1.604577899	20.23418427	1.0
15	-21.14200211	0	0	-0.2970269322	-1.633301735	20.61289215	1.0
16	-21.14200211	0	0	-0.2848655283	-1.600589991	20.1816349	1.0
[RightHandPinky4]
14	-19.75699997	0	0	0	0	0	1.0
15	-19.75699997	0	0	0	0	0	1.0
16	-19.75699997	0	0	0	0	0	1.0
[RightHandRing1]
14	-91.03599548	-0.4390000105	-18.65100098	-1.205565333	0.2811842859	22.98397446	1.0
15	-91.03599548	-0.4390000105	-18.65100098	-1.095066786	-1.28917098	21.27523804	1.0
16	-91.03599548	-0.4390000105	-18.65100098	-0.9551534057	-2.358494997	19.09536743	1.0
[RightHandRing2]
14	-31.54000092	0	0	-0.4802953601	-2.055406809	26.30224419	1.0
15	-31.54000092	0	0	-0.4897665977	-2.074458599	26.56516647	1.0
16	-31.54000092	0	0	-0.4629440308	-2.019943953	25.81420708	1.0
[RightHandRing3]
14	-29.37700081	0	0	-0.3774008453	-1.832705021	23.26981926	1.0
15	-29.37700081	0	0	-0.3853688538	-1.851132989	23.51791573	1.0
16	-29.37700081	0	0	-0.3612968922	-1.794845462	22.76130676	1.0
[RightHandRing4]
14	-26.47500038	0	0	0	0	0	1.0
15	-26.47500038	0	0	0	0	0	1.0
16	-26.47500038	0	0	0	0	0	1.0
[RightHandMiddle1]
14	-95.32500458	0	0	-1.012135029	0.1019933671	20.08767128	1.0
15	-95.32500458	0	0	-0.9345433712	-0.7033179998	18.84287262	1.0
16	-95.32500458	0	0	-0.784568131	-1.582242131	16.3917675	1.0
[RightHandMiddle2]
14	-36.98199844	0	0	-0.6962429881	-2.443891048	31.79943275	1.0
15	-36.98199844	0	0	-0.7011458278	-2.451771021	31.91426849	1.0
16	-36.98199844	0	0	-0.6450427771	-2.35940218	30.57792091	1.0
[RightHandMiddle3]
14	-29.50900078	0	0	-0.7416466475	-2.517566919	32.84851837	1.0
15	-29.50900078	0	0	-0.7458702922	-2.524112463	32.94486618	1.0
16	-29.50900078	0	0	-0.6874946952	-2.431732416	31.5935154	1.0
[RightHandMiddle4]
14	-28.3390007	0	0.0009999999311	0	0	0	1.0
15	-28.3390007	0	0.0009999999311	0	0	0	1.0
16	-28.3390007	0	0.0009999999311	0	0	0	1.0
[RightHandIndex1]
14	-91.08300018	-5.167999744	22.60099792	-1.381472707	4.027684212	25.85737038	1.0
15	-91.08300018	-5.167999744	22.60099792	-1.458994508	1.81303215	26.71831131	1.0
16	-91.08300018	-5.167999744	22.60099792	-1.217523932	1.281760454	23.27130318	1.0
[RightHandIndex2]
14	-36.76399994	0	0	-0.5174611807	-2.128910303	27.32038498	1.0
15	-36.76399994	0	0	-0.5253658295	-2.144131899	27.53241539	1.0
16	-36.76399994	0	0	-0.4786852002	-2.052147388	26.25725746	1.0
[RightHandIndex3]
14	-28.83100128	0	0	-0.2318919152	-1.448399425	18.1906395	1.0
15	-28.83100128	0	0	-0.2329216897	-1.451545477	18.23153114	1.0
16	-28.83100128	0	0	-0.2005178183	-1.349222302	16.90563774	1.0
[RightHandIndex4]
14	-23.92700005	0	0	0	0	0	1.0
15	-23.92700005	0	0	0	0	0	1.0
16	-23.92700005	0	0	0	0	0	1.0
[RightHandThumb1]
14	-24.64799881	-15.72700024	26.82600021	-1.658173442	-0.2899817228	-4.221607685	1.0
15	-24.64799881	-15.72700024	26.82600021	-1.65689683	-0.2936418653	-4.222817898	1.0
16	-24.64799881	-15.72700024	26.82600021	-1.660164952	-0.2841219306	-4.219695091	1.0
[RightHandThumb2]
14	-32.29800034	-18.64699936	18.64699936	17.9516201	-8.244167328	-33.79693985	1.0
15	-32.29800034	-18.64699936	18.64699936	17.64314461	-6.391676426	-36.7963295	1.0
16	-32.29800034	-18.64699936	18.64699936	17.8244381	-7.543929577	-34.79446411	1.0
[RightHandThumb3]
14	-26.52600098	-15.31399918	15.31399918	-26.73922157	17.79179955	-33.66358948	1.0
15	-26.52600098	-15.31399918	15.31399918	-27.31058121	19.12400055	-33.28825378	1.0
16	-26.52600098	-15.31399918	15.31399918	-23.81313515	12.1181736	-29.93275642	1.0
[RightHandThumb4]
14	-19.54599953	-11.28499985	11.28499985	0	0	0	1.0
15	-19.54599953	-11.28499985	11.28499985	0	0	0	1.0
16	-19.54599953	-11.28499985	11.28499985	0	0	0	1.0
[LeftUpLeg]
14	82.07800293	-67.51699829	-15.99599934	-94.9447403	25.3487587	-6.272470474	1.0
15	82.07800293	-67.51699829	-15.99599934	-89.44872284	24.40940666	-5.532661438	1.0
16	82.07800293	-67.51699829	-15.99599934	-79.02554321	23.40569115	-4.681524277	1.0
[LeftLeg]
14	0	-443.7049866	2.845999956	86.35577393	4.052243233	7.822608948	1.0
15	0	-443.7049866	2.845999956	85.69343567	3.882148027	9.424553871	1.0
16	0	-443.7049866	2.845999956	82.28549957	4.395691395	9.405621529	1.0
[LeftFoot]
14	0	-444.2789917	-29.8219986	-25.53612709	0.6819483042	-1.722163916	1.0
15	0	-444.2789917	-29.8219986	-26.50726128	1.123705745	-3.397162199	1.0
16	0	-444.2789917	-29.8219986	-23.53295708	2.890314817	-3.964266062	1.0
[LeftToeBase]
14	0	-87.28699493	107.1060028	-4.928526878	-5.809225513e-06	-4.451555071e-07	1.0
15	0	-87.28699493	107.1060028	-4.928524017	8.205149697e-07	-4.213329419e-07	1.0
16	0	-87.28699493	107.1060028	-6.118099213	1.617314524e-06	1.261298394e-06	1.0
[RightUpLeg]
14	-82.07800293	-67.51699829	-15.99599934	-88.12942505	-6.36551857	3.758853674	1.0
15	-82.07800293	-67.51699829	-15.99599934	-84.92221069	-6.669167995	1.868950248	1.0
16	-82.07800293	-67.51699829	-15.99599934	-77.32803345	-6.580274105	-1.559964418	1.0
[RightLeg]
14	0	-443.7049866	2.861999989	82.07611847	-5.276717663	5.106607437	1.0
15	0	-443.7049866	2.861999989	82.04377747	-4.686295509	5.245123386	1.0
16	0	-443.7049866	2.861999989	78.6496048	-3.282172203	6.606197357	1.0
[RightFoot]
14	0	-444.2770081	-29.83799934	-24.11133575	-0.232230857	0.03612881526	1.0
15	0	-444.2770081	-29.83799934	-22.28961754	-0.3816201687	-0.5239571333	1.0
16	0	-444.2770081	-29.83799934	-19.54681969	-0.5521888137	-1.481838107	1.0
[RightToeBase]
14	0	-87.28699493	107.1060028	-9.215825081	-4.576722858e-06	9.804889487e-07	1.0
15	0	-87.28699493	107.1060028	-12.02145004	-2.95553059e-06	-2.624286253e-06	1.0
16	0	-87.28699493	107.1060028	-14.28527641	-4.169518888e-06	7.218365226e-06	1.0
[EndOfFile]
